# xmcd
#
# Track frame offsets:
#	150
#	16044
#	31718
#	47505
#	63179
#	78510
#	94478
#	110126
#	128351
#	142958
#	157981
#	171365
#	186583
#	203869
#	217564
#	230550
#	244648
#	258780
#	273921
#	288696
#	305511
#
# Disc length: 4305 seconds
#
# Revision: 1
# Processed by: cddbd v1.5.2PL0 Copyright (c) Steve Scherf et al.
# Submitted via: dBpowerAMP V4.0
#
DISCID=1b10cf15
DTITLE=Various Artist - Hott Country Volume 257 Can
DYEAR=2017
DGENRE=Country
TTITLE0=Kelsea Ballerini - Legends
TTITLE1=Dierks Bentley - What The Hell Did I Say
TTITLE2=Jess Moskaluke - Kill Your Love
TTITLE3=Brett Young - Like I Loved You
TTITLE4=Gord Bamford - Livin' On Summertime
TTITLE5=Ronnie Dunn - I Worship The Woman You Walked On
TTITLE6=Washboard Union, The - Shine
TTITLE7=Luke Combs - When It Rains It Pours
TTITLE8=Jesse Mast - Somewhere South
TTITLE9=Lee Brice - Boy
TTITLE10=Cadillac Three, The - Dang If We Didn't
TTITLE11=Tenille Arts - Wildfire And Whiskey
TTITLE12=Little Big Town - When Someone Stops Loving You
TTITLE13=Petric - Play It Safe
TTITLE14=Leaving Thomas - Best Adventure
TTITLE15=Reklaws, The - Hometown Kids
TTITLE16=Ryan Hurd - Love In A Bar
TTITLE17=Andrew Hyatt - On Me
TTITLE18=Walker Hayes - You Broke Up With Me
TTITLE19=Raelynn - Lonely Call
TTITLE20=Aaron Lewis - Folded Flag
EXTD=
EXTT0=
EXTT1=
EXTT2=
EXTT3=
EXTT4=
EXTT5=
EXTT6=
EXTT7=
EXTT8=
EXTT9=
EXTT10=
EXTT11=
EXTT12=
EXTT13=
EXTT14=
EXTT15=
EXTT16=
EXTT17=
EXTT18=
EXTT19=
EXTT20=
PLAYORDER=
